<svg xmlns="http://www.w3.org/2000/svg" viewBox="0 0 1000 600">
  <rect width="1000" height="600" fill="#ffffff"/>
  
  <!-- Title -->
  <text x="500" y="35" text-anchor="middle" font-family="Arial, sans-serif" font-size="24" font-weight="bold" fill="#2c3e50">NET POSITION COLLAPSE: $60.2 BILLION DEFICIT</text>
  <text x="500" y="58" text-anchor="middle" font-family="Arial, sans-serif" font-size="13" fill="#7f8c8d">The Commonwealth's balance sheet is underwater | Source: ACFR FY2015-2024</text>
  
  <!-- Chart area -->
  <rect x="80" y="90" width="850" height="350" fill="#f8f9fa" stroke="#dee2e6" stroke-width="1" rx="5"/>
  
  <!-- Y-axis labels -->
  <text x="70" y="110" text-anchor="end" font-family="Arial, sans-serif" font-size="10" fill="#7f8c8d">$0B</text>
  <text x="70" y="180" text-anchor="end" font-family="Arial, sans-serif" font-size="10" fill="#7f8c8d">-$20B</text>
  <text x="70" y="250" text-anchor="end" font-family="Arial, sans-serif" font-size="10" fill="#7f8c8d">-$40B</text>
  <text x="70" y="320" text-anchor="end" font-family="Arial, sans-serif" font-size="10" fill="#7f8c8d">-$60B</text>
  <text x="70" y="390" text-anchor="end" font-family="Arial, sans-serif" font-size="10" fill="#7f8c8d">-$80B</text>
  
  <!-- Grid lines -->
  <line x1="80" y1="110" x2="930" y2="110" stroke="#ecf0f1" stroke-width="1"/>
  <line x1="80" y1="180" x2="930" y2="180" stroke="#ecf0f1" stroke-width="1"/>
  <line x1="80" y1="250" x2="930" y2="250" stroke="#ecf0f1" stroke-width="1"/>
  <line x1="80" y1="320" x2="930" y2="320" stroke="#ecf0f1" stroke-width="1"/>
  <line x1="80" y1="390" x2="930" y2="390" stroke="#ecf0f1" stroke-width="1"/>
  
  <!-- Zero line -->
  <line x1="80" y1="110" x2="930" y2="110" stroke="#bdc3c7" stroke-width="2"/>
  
  <!-- Data line -->
  <polyline points="130,231 215,248 300,263 385,278 470,320 555,338 640,266 725,303 810,320 895,390" 
            fill="none" stroke="#e74c3c" stroke-width="4"/>
  
  <!-- Data points with values -->
  <circle cx="130" cy="231" r="8" fill="#e74c3c"/>
  <text x="130" y="218" text-anchor="middle" font-family="Arial, sans-serif" font-size="10" fill="#c0392b" font-weight="bold">-$34.7B</text>
  <text x="130" y="420" text-anchor="middle" font-family="Arial, sans-serif" font-size="9" fill="#7f8c8d">FY15</text>
  
  <circle cx="215" cy="248" r="6" fill="#e74c3c"/>
  <text x="215" y="420" text-anchor="middle" font-family="Arial, sans-serif" font-size="9" fill="#7f8c8d">FY16</text>
  
  <circle cx="300" cy="263" r="6" fill="#e74c3c"/>
  <text x="300" y="420" text-anchor="middle" font-family="Arial, sans-serif" font-size="9" fill="#7f8c8d">FY17</text>
  
  <circle cx="385" cy="278" r="6" fill="#e74c3c"/>
  <text x="385" y="420" text-anchor="middle" font-family="Arial, sans-serif" font-size="9" fill="#7f8c8d">FY18</text>
  
  <circle cx="470" cy="320" r="6" fill="#e74c3c"/>
  <text x="470" y="420" text-anchor="middle" font-family="Arial, sans-serif" font-size="9" fill="#7f8c8d">FY19</text>
  
  <circle cx="555" cy="338" r="8" fill="#8e44ad"/>
  <text x="555" y="355" text-anchor="middle" font-family="Arial, sans-serif" font-size="10" fill="#8e44ad" font-weight="bold">-$47.7B</text>
  <text x="555" y="420" text-anchor="middle" font-family="Arial, sans-serif" font-size="9" fill="#7f8c8d">FY20</text>
  <text x="555" y="432" text-anchor="middle" font-family="Arial, sans-serif" font-size="8" fill="#8e44ad">COVID</text>
  
  <circle cx="640" cy="266" r="6" fill="#27ae60"/>
  <text x="640" y="420" text-anchor="middle" font-family="Arial, sans-serif" font-size="9" fill="#7f8c8d">FY21</text>
  
  <circle cx="725" cy="303" r="8" fill="#27ae60"/>
  <text x="725" y="290" text-anchor="middle" font-family="Arial, sans-serif" font-size="10" fill="#27ae60" font-weight="bold">-$39.6B</text>
  <text x="725" y="420" text-anchor="middle" font-family="Arial, sans-serif" font-size="9" fill="#7f8c8d">FY22</text>
  <text x="725" y="432" text-anchor="middle" font-family="Arial, sans-serif" font-size="8" fill="#27ae60">Fed aid</text>
  
  <circle cx="810" cy="320" r="6" fill="#e74c3c"/>
  <text x="810" y="420" text-anchor="middle" font-family="Arial, sans-serif" font-size="9" fill="#7f8c8d">FY23</text>
  
  <circle cx="895" cy="390" r="10" fill="#c0392b"/>
  <text x="895" y="375" text-anchor="middle" font-family="Arial, sans-serif" font-size="12" fill="#c0392b" font-weight="bold">-$60.2B</text>
  <text x="895" y="420" text-anchor="middle" font-family="Arial, sans-serif" font-size="9" fill="#7f8c8d">FY24</text>
  <text x="895" y="432" text-anchor="middle" font-family="Arial, sans-serif" font-size="8" fill="#c0392b">WORST</text>
  
  <!-- Annotation boxes -->
  <rect x="30" y="470" width="300" height="110" rx="10" fill="#e74c3c" opacity="0.1" stroke="#e74c3c" stroke-width="2"/>
  <text x="180" y="495" text-anchor="middle" font-family="Arial, sans-serif" font-size="14" font-weight="bold" fill="#c0392b">2-YEAR COLLAPSE</text>
  <text x="180" y="525" text-anchor="middle" font-family="Arial, sans-serif" font-size="11" fill="#2c3e50">FY2022 (Fed aid peak): -$39.6B</text>
  <text x="180" y="545" text-anchor="middle" font-family="Arial, sans-serif" font-size="11" fill="#2c3e50">FY2024 (Current): -$60.2B</text>
  <text x="180" y="570" text-anchor="middle" font-family="Arial, sans-serif" font-size="14" font-weight="bold" fill="#c0392b">Change: -$20.6B</text>
  
  <rect x="350" y="470" width="300" height="110" rx="10" fill="#f39c12" opacity="0.1" stroke="#f39c12" stroke-width="2"/>
  <text x="500" y="495" text-anchor="middle" font-family="Arial, sans-serif" font-size="14" font-weight="bold" fill="#d35400">10-YEAR TRAJECTORY</text>
  <text x="500" y="525" text-anchor="middle" font-family="Arial, sans-serif" font-size="11" fill="#2c3e50">FY2015: -$34.7B</text>
  <text x="500" y="545" text-anchor="middle" font-family="Arial, sans-serif" font-size="11" fill="#2c3e50">FY2024: -$60.2B</text>
  <text x="500" y="570" text-anchor="middle" font-family="Arial, sans-serif" font-size="14" font-weight="bold" fill="#d35400">Change: -$25.5B (74%)</text>
  
  <rect x="670" y="470" width="300" height="110" rx="10" fill="#9b59b6" opacity="0.1" stroke="#9b59b6" stroke-width="2"/>
  <text x="820" y="495" text-anchor="middle" font-family="Arial, sans-serif" font-size="14" font-weight="bold" fill="#8e44ad">PER HOUSEHOLD</text>
  <text x="820" y="535" text-anchor="middle" font-family="Arial, sans-serif" font-size="32" font-weight="bold" fill="#8e44ad">$22,717</text>
  <text x="820" y="565" text-anchor="middle" font-family="Arial, sans-serif" font-size="11" fill="#7f8c8d">Your share of the deficit</text>
</svg>
