<?xml version="1.0" encoding="UTF-8"?>
<svg xmlns="http://www.w3.org/2000/svg" viewBox="0 0 900 700">
  <defs>
    <linearGradient id="headerGrad" x1="0%" y1="0%" x2="100%" y2="0%">
      <stop offset="0%" style="stop-color:#1a365d"/>
      <stop offset="100%" style="stop-color:#2c5282"/>
    </linearGradient>
    <linearGradient id="pandemicGrad" x1="0%" y1="0%" x2="0%" y2="100%">
      <stop offset="0%" style="stop-color:#fecaca;stop-opacity:0.4"/>
      <stop offset="100%" style="stop-color:#fecaca;stop-opacity:0.15"/>
    </linearGradient>
  </defs>
  
  <!-- Background -->
  <rect width="900" height="700" fill="#f8fafc"/>
  
  <!-- Header -->
  <rect x="0" y="0" width="900" height="70" fill="url(#headerGrad)"/>
  <text x="450" y="30" text-anchor="middle" font-family="Georgia, serif" font-size="20" fill="white" font-weight="bold">MERRIMACK VALLEY EDUCATION CRISIS</text>
  <text x="450" y="50" text-anchor="middle" font-family="Arial, sans-serif" font-size="12" fill="#cbd5e0">MCAS Grades 3-8 ELA Proficiency: 2019-2025 | Source: MA DESE</text>

  <!-- Chart Area - narrower to make room for legend on right -->
  <rect x="70" y="90" width="620" height="340" fill="white" stroke="#e2e8f0" stroke-width="1"/>
  
  <!-- Pandemic Zone -->
  <rect x="175" y="90" width="90" height="340" fill="url(#pandemicGrad)"/>
  <text x="220" y="105" text-anchor="middle" font-family="Arial, sans-serif" font-size="8" fill="#b91c1c" font-weight="bold">COVID</text>

  <!-- Y-Axis: 55% to 15%, range=40%, height=340px, so 1%=8.5px -->
  <!-- y = 90 + (55 - value) * 8.5 -->
  <text x="60" y="94" text-anchor="end" font-family="Arial, sans-serif" font-size="10" fill="#64748b">55%</text>
  <text x="60" y="179" text-anchor="end" font-family="Arial, sans-serif" font-size="10" fill="#64748b">45%</text>
  <text x="60" y="264" text-anchor="end" font-family="Arial, sans-serif" font-size="10" fill="#64748b">35%</text>
  <text x="60" y="349" text-anchor="end" font-family="Arial, sans-serif" font-size="10" fill="#64748b">25%</text>
  <text x="60" y="434" text-anchor="end" font-family="Arial, sans-serif" font-size="10" fill="#64748b">15%</text>
  
  <!-- Grid Lines -->
  <line x1="70" y1="90" x2="690" y2="90" stroke="#e2e8f0" stroke-width="1"/>
  <line x1="70" y1="175" x2="690" y2="175" stroke="#e2e8f0" stroke-width="1"/>
  <line x1="70" y1="260" x2="690" y2="260" stroke="#e2e8f0" stroke-width="1"/>
  <line x1="70" y1="345" x2="690" y2="345" stroke="#e2e8f0" stroke-width="1"/>
  <line x1="70" y1="430" x2="690" y2="430" stroke="#e2e8f0" stroke-width="1"/>

  <!-- X-Axis Labels -->
  <text x="120" y="448" text-anchor="middle" font-family="Arial, sans-serif" font-size="11" fill="#1e293b" font-weight="bold">2019</text>
  <text x="220" y="448" text-anchor="middle" font-family="Arial, sans-serif" font-size="10" fill="#b91c1c">2020</text>
  <text x="320" y="448" text-anchor="middle" font-family="Arial, sans-serif" font-size="10" fill="#64748b">2021</text>
  <text x="420" y="448" text-anchor="middle" font-family="Arial, sans-serif" font-size="11" fill="#1e293b" font-weight="bold">2022</text>
  <text x="520" y="448" text-anchor="middle" font-family="Arial, sans-serif" font-size="10" fill="#64748b">2023</text>
  <text x="620" y="448" text-anchor="middle" font-family="Arial, sans-serif" font-size="10" fill="#64748b">2024</text>
  <text x="670" y="448" text-anchor="middle" font-family="Arial, sans-serif" font-size="11" fill="#1e293b" font-weight="bold">2025</text>

  <!-- Scale: 55%=y90, 15%=y430, range=40%, height=340px, so 1%=8.5px -->
  <!-- y = 90 + (55 - value) * 8.5 -->

  <!-- STATE LINE (Navy Blue) - 52%, 41%, 42%, 39%, 42% -->
  <polyline points="120,116 420,209 520,201 620,226 670,201" 
            fill="none" stroke="#1e40af" stroke-width="4" stroke-linecap="round" stroke-linejoin="round"/>
  <circle cx="120" cy="116" r="6" fill="#1e40af"/>
  <circle cx="420" cy="209" r="5" fill="#1e40af"/>
  <circle cx="520" cy="201" r="5" fill="#1e40af"/>
  <circle cx="620" cy="226" r="5" fill="#1e40af"/>
  <circle cx="670" cy="201" r="6" fill="#1e40af"/>
  <text x="120" y="105" text-anchor="middle" font-family="Arial, sans-serif" font-size="11" fill="#1e40af" font-weight="bold">52%</text>
  <text x="683" y="197" text-anchor="start" font-family="Arial, sans-serif" font-size="10" fill="#1e40af" font-weight="bold">42%</text>

  <!-- HAVERHILL LINE (Teal) - 38%, 26%, 27%, 27%, 28% -->
  <polyline points="120,235 420,337 520,328 620,328 670,320" 
            fill="none" stroke="#0d9488" stroke-width="3" stroke-linecap="round" stroke-linejoin="round"/>
  <circle cx="120" cy="235" r="5" fill="#0d9488"/>
  <circle cx="420" cy="337" r="4" fill="#0d9488"/>
  <circle cx="520" cy="328" r="4" fill="#0d9488"/>
  <circle cx="620" cy="328" r="4" fill="#0d9488"/>
  <circle cx="670" cy="320" r="5" fill="#0d9488"/>
  <text x="108" y="230" text-anchor="end" font-family="Arial, sans-serif" font-size="10" fill="#0d9488" font-weight="bold">38%</text>
  <text x="683" y="325" text-anchor="start" font-family="Arial, sans-serif" font-size="10" fill="#0d9488" font-weight="bold">28%</text>

  <!-- METHUEN LINE (Amber/Orange) - 35%, 28%, 29%, 29%, 30% -->
  <polyline points="120,260 420,320 520,311 620,311 670,303" 
            fill="none" stroke="#d97706" stroke-width="3" stroke-linecap="round" stroke-linejoin="round"/>
  <circle cx="120" cy="260" r="5" fill="#d97706"/>
  <circle cx="420" cy="320" r="4" fill="#d97706"/>
  <circle cx="520" cy="311" r="4" fill="#d97706"/>
  <circle cx="620" cy="311" r="4" fill="#d97706"/>
  <circle cx="670" cy="303" r="5" fill="#d97706"/>
  <text x="108" y="255" text-anchor="end" font-family="Arial, sans-serif" font-size="10" fill="#d97706" font-weight="bold">35%</text>
  <text x="683" y="299" text-anchor="start" font-family="Arial, sans-serif" font-size="10" fill="#d97706" font-weight="bold">30%</text>

  <!-- LOWELL LINE (Purple) - 32%, 21%, 23%, 23%, 28% -->
  <!-- 32% -> 90 + 23*8.5 = 285.5 -->
  <!-- 21% -> 90 + 34*8.5 = 379 -->
  <!-- 23% -> 90 + 32*8.5 = 362 -->
  <!-- 28% -> 90 + 27*8.5 = 319.5 -->
  <polyline points="120,286 420,379 520,362 620,362 670,320" 
            fill="none" stroke="#7c3aed" stroke-width="3" stroke-linecap="round" stroke-linejoin="round"/>
  <circle cx="120" cy="286" r="5" fill="#7c3aed"/>
  <circle cx="420" cy="379" r="4" fill="#7c3aed"/>
  <circle cx="520" cy="362" r="4" fill="#7c3aed"/>
  <circle cx="620" cy="362" r="4" fill="#7c3aed"/>
  <circle cx="670" cy="320" r="5" fill="#7c3aed"/>
  <text x="108" y="291" text-anchor="end" font-family="Arial, sans-serif" font-size="10" fill="#7c3aed" font-weight="bold">32%</text>
  <text x="683" y="316" text-anchor="start" font-family="Arial, sans-serif" font-size="10" fill="#7c3aed" font-weight="bold">28%</text>

  <!-- LAWRENCE LINE (Magenta/Pink) - 22%, 14%, 17%, 18%, 18% -->
  <polyline points="120,371 420,425 520,413 620,405 670,405" 
            fill="none" stroke="#be185d" stroke-width="3" stroke-linecap="round" stroke-linejoin="round"/>
  <circle cx="120" cy="371" r="5" fill="#be185d"/>
  <circle cx="420" cy="425" r="4" fill="#be185d"/>
  <circle cx="520" cy="413" r="4" fill="#be185d"/>
  <circle cx="620" cy="405" r="4" fill="#be185d"/>
  <circle cx="670" cy="405" r="5" fill="#be185d"/>
  <text x="108" y="376" text-anchor="end" font-family="Arial, sans-serif" font-size="10" fill="#be185d" font-weight="bold">22%</text>
  <text x="683" y="410" text-anchor="start" font-family="Arial, sans-serif" font-size="10" fill="#be185d" font-weight="bold">18%</text>

  <!-- Legend - Right side, outside chart -->
  <rect x="710" y="90" width="180" height="180" fill="white" stroke="#e2e8f0" stroke-width="1" rx="4"/>
  <text x="800" y="112" text-anchor="middle" font-family="Arial, sans-serif" font-size="11" fill="#1e293b" font-weight="bold">LEGEND</text>
  
  <line x1="725" y1="135" x2="765" y2="135" stroke="#1e40af" stroke-width="4"/>
  <circle cx="745" cy="135" r="4" fill="#1e40af"/>
  <text x="775" y="139" font-family="Arial, sans-serif" font-size="10" fill="#1e293b" font-weight="bold">State Avg</text>
  
  <line x1="725" y1="160" x2="765" y2="160" stroke="#0d9488" stroke-width="3"/>
  <circle cx="745" cy="160" r="4" fill="#0d9488"/>
  <text x="775" y="164" font-family="Arial, sans-serif" font-size="10" fill="#1e293b">Haverhill (8.5K)</text>
  
  <line x1="725" y1="185" x2="765" y2="185" stroke="#d97706" stroke-width="3"/>
  <circle cx="745" cy="185" r="4" fill="#d97706"/>
  <text x="775" y="189" font-family="Arial, sans-serif" font-size="10" fill="#1e293b">Methuen (7.1K)</text>

  <line x1="725" y1="210" x2="765" y2="210" stroke="#7c3aed" stroke-width="3"/>
  <circle cx="745" cy="210" r="4" fill="#7c3aed"/>
  <text x="775" y="214" font-family="Arial, sans-serif" font-size="10" fill="#1e293b">Lowell (14.5K)</text>
  
  <line x1="725" y1="235" x2="765" y2="235" stroke="#be185d" stroke-width="3"/>
  <circle cx="745" cy="235" r="4" fill="#be185d"/>
  <text x="775" y="239" font-family="Arial, sans-serif" font-size="10" fill="#1e293b">Lawrence (15.4K)</text>

  <text x="800" y="260" text-anchor="middle" font-family="Arial, sans-serif" font-size="8" fill="#64748b" font-style="italic">(enrollment in parentheses)</text>

  <!-- Bottom Summary Cards - Row 1 -->
  <rect x="70" y="465" width="200" height="105" fill="white" stroke="#e2e8f0" stroke-width="1" rx="4"/>
  <rect x="70" y="465" width="200" height="24" fill="#b91c1c" rx="4"/>
  <text x="170" y="482" text-anchor="middle" font-family="Arial, sans-serif" font-size="10" fill="white" font-weight="bold">PANDEMIC LEARNING LOSS</text>
  <text x="85" y="505" font-family="Arial, sans-serif" font-size="10" fill="#1e293b">State ELA: 52% → 42%</text>
  <text x="225" y="505" font-family="Arial, sans-serif" font-size="10" fill="#b91c1c" font-weight="bold">-10 pts</text>
  <text x="85" y="522" font-family="Arial, sans-serif" font-size="10" fill="#1e293b">State Math: 49% → 41%</text>
  <text x="225" y="522" font-family="Arial, sans-serif" font-size="10" fill="#b91c1c" font-weight="bold">-8 pts</text>
  <text x="170" y="548" text-anchor="middle" font-family="Arial, sans-serif" font-size="8" fill="#64748b" font-style="italic">"No student group at pre-pandemic"</text>
  <text x="170" y="560" text-anchor="middle" font-family="Arial, sans-serif" font-size="8" fill="#64748b">— Commissioner Martinez</text>

  <rect x="285" y="465" width="175" height="105" fill="white" stroke="#e2e8f0" stroke-width="1" rx="4"/>
  <rect x="285" y="465" width="175" height="24" fill="#1e40af" rx="4"/>
  <text x="372" y="482" text-anchor="middle" font-family="Arial, sans-serif" font-size="10" fill="white" font-weight="bold">2025 GAP vs STATE</text>
  <text x="300" y="503" font-family="Arial, sans-serif" font-size="9" fill="#0d9488" font-weight="bold">Haverhill:</text>
  <text x="370" y="503" font-family="Arial, sans-serif" font-size="9" fill="#1e293b">-14 pts</text>
  <text x="300" y="518" font-family="Arial, sans-serif" font-size="9" fill="#d97706" font-weight="bold">Methuen:</text>
  <text x="370" y="518" font-family="Arial, sans-serif" font-size="9" fill="#1e293b">-12 pts</text>
  <text x="300" y="533" font-family="Arial, sans-serif" font-size="9" fill="#7c3aed" font-weight="bold">Lowell:</text>
  <text x="370" y="533" font-family="Arial, sans-serif" font-size="9" fill="#1e293b">-14 pts</text>
  <text x="300" y="548" font-family="Arial, sans-serif" font-size="9" fill="#be185d" font-weight="bold">Lawrence:</text>
  <text x="370" y="548" font-family="Arial, sans-serif" font-size="9" fill="#1e293b">-24 pts</text>
  <text x="372" y="565" text-anchor="middle" font-family="Arial, sans-serif" font-size="8" fill="#64748b">All four in bottom quartile</text>

  <rect x="475" y="465" width="215" height="105" fill="white" stroke="#e2e8f0" stroke-width="1" rx="4"/>
  <rect x="475" y="465" width="215" height="24" fill="#047857" rx="4"/>
  <text x="582" y="482" text-anchor="middle" font-family="Arial, sans-serif" font-size="10" fill="white" font-weight="bold">2024→2025 PROGRESS</text>
  <text x="490" y="503" font-family="Arial, sans-serif" font-size="9" fill="#be185d" font-weight="bold">Lawrence:</text>
  <text x="555" y="503" font-family="Arial, sans-serif" font-size="9" fill="#1e293b">53% targets met</text>
  <text x="660" y="503" font-family="Arial, sans-serif" font-size="10" fill="#047857" font-weight="bold">B</text>
  <text x="490" y="518" font-family="Arial, sans-serif" font-size="9" fill="#7c3aed" font-weight="bold">Lowell:</text>
  <text x="555" y="518" font-family="Arial, sans-serif" font-size="9" fill="#1e293b">51% targets met</text>
  <text x="660" y="518" font-family="Arial, sans-serif" font-size="10" fill="#047857" font-weight="bold">B-</text>
  <text x="490" y="533" font-family="Arial, sans-serif" font-size="9" fill="#0d9488" font-weight="bold">Haverhill:</text>
  <text x="555" y="533" font-family="Arial, sans-serif" font-size="9" fill="#1e293b">44% targets met</text>
  <text x="660" y="533" font-family="Arial, sans-serif" font-size="10" fill="#b91c1c" font-weight="bold">D+</text>
  <text x="490" y="548" font-family="Arial, sans-serif" font-size="9" fill="#d97706" font-weight="bold">Methuen:</text>
  <text x="555" y="548" font-family="Arial, sans-serif" font-size="9" fill="#1e293b">42% targets met</text>
  <text x="660" y="548" font-family="Arial, sans-serif" font-size="10" fill="#ca8a04" font-weight="bold">C-</text>
  <text x="582" y="565" text-anchor="middle" font-family="Arial, sans-serif" font-size="8" fill="#64748b" font-style="italic">Higher-spending showing best progress</text>

  <!-- Cost Per Pupil Card - Full Width Bottom -->
  <rect x="70" y="580" width="620" height="105" fill="white" stroke="#e2e8f0" stroke-width="1" rx="4"/>
  <rect x="70" y="580" width="620" height="24" fill="#6366f1" rx="4"/>
  <text x="380" y="597" text-anchor="middle" font-family="Arial, sans-serif" font-size="11" fill="white" font-weight="bold">💰 PER PUPIL SPENDING (FY2023) vs MCAS PROFICIENCY</text>
  
  <!-- Bar chart for spending -->
  <!-- Lawrence: $20,878 -->
  <text x="100" y="625" font-family="Arial, sans-serif" font-size="9" fill="#be185d" font-weight="bold">Lawrence</text>
  <rect x="175" y="615" width="200" height="14" fill="#be185d" rx="2"/>
  <text x="382" y="625" font-family="Arial, sans-serif" font-size="9" fill="#1e293b">$20,878 (+34% vs US)</text>
  <text x="510" y="625" font-family="Arial, sans-serif" font-size="9" fill="#64748b">→ 18% ELA</text>

  <!-- Lowell: $20,494 -->
  <text x="100" y="643" font-family="Arial, sans-serif" font-size="9" fill="#7c3aed" font-weight="bold">Lowell</text>
  <rect x="175" y="633" width="196" height="14" fill="#7c3aed" rx="2"/>
  <text x="382" y="643" font-family="Arial, sans-serif" font-size="9" fill="#1e293b">$20,494 (+31% vs US)</text>
  <text x="510" y="643" font-family="Arial, sans-serif" font-size="9" fill="#64748b">→ 28% ELA</text>

  <!-- Haverhill: $19,605 -->
  <text x="100" y="661" font-family="Arial, sans-serif" font-size="9" fill="#0d9488" font-weight="bold">Haverhill</text>
  <rect x="175" y="651" width="188" height="14" fill="#0d9488" rx="2"/>
  <text x="382" y="661" font-family="Arial, sans-serif" font-size="9" fill="#1e293b">$19,605 (+25% vs US)</text>
  <text x="510" y="661" font-family="Arial, sans-serif" font-size="9" fill="#64748b">→ 28% ELA</text>

  <!-- Methuen: $18,565 -->
  <text x="100" y="679" font-family="Arial, sans-serif" font-size="9" fill="#d97706" font-weight="bold">Methuen</text>
  <rect x="175" y="669" width="178" height="14" fill="#d97706" rx="2"/>
  <text x="382" y="679" font-family="Arial, sans-serif" font-size="9" fill="#1e293b">$18,565 (+19% vs US)</text>
  <text x="510" y="679" font-family="Arial, sans-serif" font-size="9" fill="#64748b">→ 30% ELA</text>

  <!-- US Average reference line -->
  <line x1="175" y1="610" x2="175" y2="690" stroke="#64748b" stroke-width="2" stroke-dasharray="4,2"/>
  <text x="175" y="607" text-anchor="middle" font-family="Arial, sans-serif" font-size="7" fill="#64748b">US Avg</text>
  <text x="175" y="697" text-anchor="middle" font-family="Arial, sans-serif" font-size="7" fill="#64748b">$15,633</text>

  <!-- Key insight -->
  <text x="630" y="625" font-family="Arial, sans-serif" font-size="8" fill="#64748b" font-style="italic">Lowest spender</text>
  <text x="630" y="637" font-family="Arial, sans-serif" font-size="8" fill="#64748b" font-style="italic">has highest</text>
  <text x="630" y="649" font-family="Arial, sans-serif" font-size="8" fill="#64748b" font-style="italic">proficiency</text>
  <text x="630" y="673" font-family="Arial, sans-serif" font-size="8" fill="#b91c1c" font-weight="bold">Spending ≠</text>
  <text x="630" y="685" font-family="Arial, sans-serif" font-size="8" fill="#b91c1c" font-weight="bold">Outcomes</text>
</svg>
